<!DOCTYPE svg PUBLIC "-//W3C//DTD SVG 1.1//EN" "http://www.w3.org/Graphics/SVG/1.1/DTD/svg11.dtd">
<!-- Uploaded to: SVG Repo, www.svgrepo.com, Transformed by: SVG Repo Mixer Tools -->
<svg fill="#ffffff" width="800px" height="800px" viewBox="0 0 16 16" xmlns="http://www.w3.org/2000/svg">
<g id="SVGRepo_bgCarrier" stroke-width="0"/>
<g id="SVGRepo_tracerCarrier" stroke-linecap="round" stroke-linejoin="round"/>
<g id="SVGRepo_iconCarrier">
<path d="M12.25 12.25h-.37L11 2.87a1.21 1.21 0 0 0-.38-.78L8.87.35a1.25 1.25 0 0 0-1.74 0L5.34 2.09a1.21 1.21 0 0 0-.34.78l-.84 9.38h-.41A1.26 1.26 0 0 0 2.5 13.5V16h11v-2.5a1.26 1.26 0 0 0-1.25-1.25zM6.2 3 8 1.25 9.8 3l.83 9.27H5.37zm6.05 11.77h-8.5V13.5h8.5z"/>
<circle cx="8.02" cy="4.04" r=".62"/>
</g>
</svg>