<svg width="16" height="16" viewBox="0 0 16 16" fill="none" xmlns="http://www.w3.org/2000/svg">
<path d="M13.3333 6.66665C13.3333 9.61198 8 14.6666 8 14.6666C8 14.6666 2.66667 9.61198 2.66667 6.66665C2.66667 5.25216 3.22857 3.8956 4.22877 2.89541C5.22896 1.89522 6.58552 1.33331 8 1.33331C9.41449 1.33331 10.771 1.89522 11.7712 2.89541C12.7714 3.8956 13.3333 5.25216 13.3333 6.66665Z" stroke="#2B2B2B" stroke-width="1.5"/>
<path d="M8 7.33333C8.17681 7.33333 8.34638 7.2631 8.47141 7.13807C8.59643 7.01305 8.66667 6.84348 8.66667 6.66667C8.66667 6.48986 8.59643 6.32029 8.47141 6.19526C8.34638 6.07024 8.17681 6 8 6C7.82319 6 7.65362 6.07024 7.5286 6.19526C7.40357 6.32029 7.33334 6.48986 7.33334 6.66667C7.33334 6.84348 7.40357 7.01305 7.5286 7.13807C7.65362 7.2631 7.82319 7.33333 8 7.33333Z" fill="#2B2B2B" stroke="#2B2B2B" stroke-width="1.5" stroke-linecap="round" stroke-linejoin="round"/>
</svg>
